<svg fill="none" height="64" viewBox="0 0 64 64" width="64" xmlns="http://www.w3.org/2000/svg"><g clip-rule="evenodd" fill-rule="evenodd"><path d="m35 17h7.999v-13.99902h-7.999z" fill="#919499"/><path d="m47 3v18h-30v-18h18v14h8v-14z" fill="#cef"/><path d="m13 61h38v-26h-38z" fill="#cef"/><path d="m61 13v44c0 2.21-1.79 4-4 4h-6v-26h-38v26h-6c-2.21 0-4-1.79-4-4v-50c0-2.21 1.79-4 4-4h10v18h30v-18h4z" fill="#4da6ff"/></g><path d="m39 3h-4v14h8v-14m-12 0h-14v18h30v-14m-24 44h18m-18-6h18m-28 12v-22h38v26h6c2.209 0 4-1.791 4-4v-44l-10-10h-8.083m4.083 58h-40c-2.209 0-4-1.791-4-4v-50c0-2.209 1.791-4 4-4h6" stroke="#12131a" stroke-linecap="round" stroke-linejoin="round"/></svg>